<svg width="32" height="32" xmlns="http://www.w3.org/2000/svg">

 <g>
  <title>Layer 1</title>
  <g id="svg_19">
   <path stroke="null" id="svg_4" fill="#67BECE" d="m27.54692,16.5335a0.756,0.756 0 0 1 -0.307,-0.065l-6.438,-2.883a0.751,0.751 0 0 1 0,-1.37l6.438,-2.873a0.752,0.752 0 0 1 0.991,0.379a0.752,0.752 0 0 1 -0.38,0.991l-4.905,2.189l4.906,2.197a0.75,0.75 0 0 1 -0.305,1.435z"/>
   <path stroke="null" id="svg_5" fill="#3F54A3" d="m18.77292,26.9925c-7.078,0 -13.266,-4.778 -15.045,-11.62a0.749,0.749 0 1 1 1.451,-0.378a14.044,14.044 0 0 0 13.594,10.498a0.75,0.75 0 0 1 0,1.5z"/>
   <path stroke="null" id="svg_6" fill="#67BECE" d="m16.18892,20.7645a0.75,0.75 0 0 1 -0.75,-0.75l0,-14.257a0.75,0.75 0 0 1 1.5,0l0,14.257a0.75,0.75 0 0 1 -0.75,0.75z"/>
  </g>
 </g>
</svg>